<?xml version="1.0" standalone="no"?>
<!DOCTYPE svg PUBLIC "-//W3C//DTD SVG 20010904//EN"
 "http://www.w3.org/TR/2001/REC-SVG-20010904/DTD/svg10.dtd">
<svg version="1.0" xmlns="http://www.w3.org/2000/svg"
 width="512.000000pt" height="512.000000pt" viewBox="0 0 512.000000 512.000000"
 preserveAspectRatio="xMidYMid meet">
<metadata>
Created by potrace 1.14, written by Peter Selinger 2001-2017
</metadata>
<g transform="translate(0.000000,512.000000) scale(0.100000,-0.100000)"
fill="#000000" stroke="none">
<path d="M2407 5064 c-1 -1 -36 -5 -77 -8 -516 -45 -1027 -260 -1430 -603 -53
-45 -222 -212 -265 -263 -42 -49 -76 -91 -105 -130 -14 -18 -29 -38 -35 -44
-16 -18 -103 -153 -148 -230 -181 -308 -299 -678 -336 -1046 -20 -203 1 -583
43 -764 9 -35 17 -75 20 -87 2 -13 12 -51 21 -84 224 -790 806 -1427 1563
-1712 142 -53 200 -50 247 15 18 25 20 44 20 252 0 124 -1 232 -3 241 -3 13
-12 14 -60 6 -31 -5 -111 -10 -177 -11 -177 -2 -243 12 -359 72 -124 65 -219
173 -275 313 -60 151 -152 268 -304 387 -48 38 -67 59 -67 75 0 45 87 64 179
41 130 -34 239 -121 337 -269 118 -180 269 -269 449 -264 80 3 123 11 217 41
l67 21 15 70 c20 86 68 188 112 237 21 23 31 41 24 45 -5 3 -10 4 -10 2 0 -2
-24 0 -52 5 -29 5 -70 11 -92 14 -143 16 -390 105 -521 187 -134 83 -264 227
-339 375 -57 112 -109 294 -121 418 -4 37 -9 77 -11 89 -6 30 -6 289 0 316 3
13 8 35 10 49 25 156 125 368 218 467 l30 31 -15 49 c-28 85 -36 155 -33 278
2 66 6 129 9 140 3 11 8 34 12 50 14 60 48 160 58 166 16 11 119 2 190 -16
112 -28 273 -100 382 -170 28 -17 67 -42 87 -54 l37 -22 113 25 c118 26 170
34 253 42 28 2 66 7 85 9 40 7 337 7 390 1 107 -13 141 -17 200 -27 36 -5 104
-19 152 -30 82 -19 88 -19 120 -3 18 9 35 20 38 23 7 10 95 62 175 103 173 90
316 129 441 120 16 -2 25 -15 39 -59 63 -201 70 -424 17 -590 -10 -32 -2 -53
38 -93 50 -50 161 -268 176 -344 2 -11 8 -43 14 -71 5 -27 12 -63 15 -80 5
-30 6 -282 1 -320 -1 -11 -7 -49 -11 -85 -5 -36 -9 -67 -10 -70 -1 -3 -7 -32
-14 -65 -19 -91 -67 -221 -112 -303 -119 -223 -309 -376 -579 -467 -114 -39
-114 -39 -270 -66 -63 -11 -126 -22 -139 -25 l-24 -5 30 -32 c46 -48 89 -132
115 -222 22 -77 22 -95 23 -510 1 -237 5 -443 9 -460 11 -42 55 -74 109 -78
35 -3 69 5 154 38 564 217 1011 602 1320 1135 153 265 263 594 309 925 18 126
25 463 13 575 -42 393 -133 688 -313 1015 -61 112 -197 316 -236 355 -3 3 -27
32 -55 65 -50 61 -216 229 -271 275 -192 161 -380 285 -564 371 -125 59 -150
70 -255 107 -154 55 -296 91 -465 118 -19 3 -46 7 -60 9 -79 14 -472 29 -483
19z"/>
</g>
</svg>
