<?xml version="1.0" standalone="no"?>
<!DOCTYPE svg PUBLIC "-//W3C//DTD SVG 20010904//EN"
 "http://www.w3.org/TR/2001/REC-SVG-20010904/DTD/svg10.dtd">
<svg version="1.0" xmlns="http://www.w3.org/2000/svg"
 width="700.000000pt" height="700.000000pt" viewBox="0 0 700.000000 700.000000"
 preserveAspectRatio="xMidYMid meet">
<metadata>
Created by potrace 1.14, written by Peter Selinger 2001-2017
</metadata>
<g transform="translate(0.000000,700.000000) scale(0.100000,-0.100000)"
fill="#000000" stroke="none">
<path d="M3417 6344 c-1 -1 -52 -4 -113 -8 -61 -4 -121 -9 -135 -11 -13 -2
-40 -6 -59 -9 -45 -6 -134 -20 -140 -21 -3 -1 -23 -5 -45 -9 -22 -5 -83 -19
-135 -33 -845 -218 -1551 -823 -1899 -1625 -50 -115 -132 -350 -146 -416 -2
-9 -9 -39 -15 -67 -16 -64 -16 -67 -39 -216 -101 -656 26 -1312 366 -1881 409
-687 1096 -1175 1871 -1333 64 -13 140 -27 167 -30 28 -3 64 -8 80 -10 178
-22 528 -23 645 0 10 2 45 6 77 10 32 3 65 8 73 10 8 2 30 7 48 10 477 81 978
325 1360 663 475 419 809 1005 916 1602 3 19 8 44 10 56 2 12 7 45 11 74 4 29
8 61 10 71 22 112 21 550 -1 662 -2 12 -7 44 -10 72 -3 27 -10 72 -15 100 -6
27 -12 61 -15 75 -30 163 -112 411 -197 598 -335 733 -972 1296 -1737 1537
-81 25 -252 68 -315 79 -148 25 -201 32 -315 41 -74 6 -298 13 -303 9z m293
-228 c86 -7 213 -23 240 -31 8 -2 33 -6 55 -10 180 -26 463 -124 685 -237 873
-445 1429 -1346 1433 -2323 2 -270 -32 -507 -108 -766 -206 -700 -725 -1303
-1395 -1622 -97 -46 -234 -101 -281 -112 l-25 -6 0 428 c0 516 -5 569 -66 720
l-25 61 31 6 c17 3 42 9 56 12 14 3 35 7 46 9 62 13 199 58 269 87 383 162
622 459 710 883 9 44 18 95 21 114 2 19 7 48 10 65 12 67 11 353 -2 441 -27
179 -99 360 -201 502 -47 66 -51 75 -43 105 5 18 12 47 16 63 11 52 14 308 3
360 -9 49 -12 64 -23 115 -8 35 -42 138 -60 181 -12 28 -23 38 -56 48 -157 47
-427 -31 -715 -207 l-90 -54 -70 13 c-38 7 -72 13 -75 14 -61 14 -75 16 -180
30 -231 30 -561 26 -760 -10 -14 -3 -41 -7 -60 -10 -29 -4 -77 -14 -100 -20
-69 -18 -99 -16 -141 11 -171 110 -375 199 -534 234 -67 15 -170 15 -223 1
-38 -11 -46 -18 -63 -59 -56 -131 -92 -312 -91 -467 1 -95 20 -237 36 -264 3
-4 -15 -36 -41 -71 -107 -148 -183 -333 -210 -510 -10 -67 -10 -361 0 -449 70
-622 409 -1006 1012 -1146 66 -16 122 -29 124 -31 2 -2 -6 -27 -17 -56 -38
-98 -39 -101 -41 -128 -2 -42 -208 -75 -312 -50 -122 29 -197 87 -290 222
-114 167 -214 254 -357 311 -67 27 -90 31 -172 31 -109 1 -155 -16 -196 -69
-66 -86 -21 -193 120 -287 67 -45 93 -70 148 -138 36 -45 52 -75 127 -230 67
-140 167 -244 301 -314 140 -73 255 -96 460 -93 l145 3 -1 -201 c-1 -110 -2
-205 -3 -212 -1 -9 -9 -9 -33 -2 -50 16 -170 60 -193 69 -373 163 -629 339
-898 617 -373 385 -633 911 -702 1423 -3 25 -8 52 -10 60 -23 87 -23 525 0
663 2 12 6 39 9 60 8 52 35 183 48 232 5 22 12 49 14 61 5 26 72 229 89 269 7
17 25 59 40 95 227 533 680 1014 1210 1285 222 114 500 210 690 241 21 3 47 8
59 10 11 2 41 7 66 10 25 3 54 8 64 10 11 2 60 6 110 10 50 3 92 7 93 8 5 4
242 -2 323 -8z m-1343 -1162 c141 -53 237 -103 401 -211 l52 -35 108 26 c150
36 203 45 339 60 108 12 414 14 503 2 19 -2 60 -7 90 -10 71 -9 183 -31 287
-57 l82 -21 83 54 c116 76 202 123 307 168 98 42 230 77 254 67 26 -10 50
-139 53 -282 4 -133 -11 -223 -51 -319 l-16 -37 36 -38 c108 -114 191 -264
232 -419 22 -83 26 -120 27 -257 1 -162 -5 -246 -24 -345 -75 -396 -283 -653
-636 -786 -74 -28 -239 -70 -308 -79 -27 -3 -53 -8 -56 -10 -4 -2 -37 -7 -74
-10 -37 -4 -77 -8 -89 -11 -12 -2 -49 -7 -82 -10 -74 -7 -106 -12 -111 -17 -2
-2 41 -43 95 -91 141 -123 165 -158 202 -293 22 -75 22 -96 23 -561 1 -266 -2
-486 -6 -488 -10 -7 -150 -33 -212 -40 -28 -4 -54 -8 -57 -10 -25 -14 -373
-22 -514 -11 -144 12 -332 40 -344 53 -6 5 -8 141 -10 584 l-1 166 -132 -27
c-167 -34 -344 -37 -455 -9 -173 45 -281 133 -348 285 -49 111 -92 187 -145
254 -22 28 -37 51 -32 51 17 0 142 -146 142 -167 0 -17 127 -159 175 -196 65
-50 158 -92 246 -113 52 -12 211 -11 281 2 81 15 234 67 266 90 2 1 6 17 8 36
30 201 71 267 272 437 28 25 51 46 49 47 -1 2 -25 6 -52 9 -28 3 -63 8 -80 10
-16 2 -57 6 -90 10 -71 8 -99 12 -180 26 -33 6 -70 12 -81 14 -57 9 -220 58
-283 85 -74 32 -187 95 -209 117 -7 7 -16 13 -20 13 -16 0 -148 137 -192 200
-76 107 -158 321 -175 458 -3 20 -9 66 -14 102 -20 144 -9 383 23 495 2 6 7
24 11 40 27 98 125 265 215 364 29 32 37 48 31 60 -20 37 -51 148 -58 205 -14
123 -5 241 27 364 l14 54 53 -6 c29 -3 97 -22 150 -42z"/>
</g>
</svg>
